<svg xmlns="http://www.w3.org/2000/svg" viewBox="0 0 1600 1050" role="img" aria-label="Radio archive visual motif"><defs><filter id="grain"><feTurbulence type="fractalNoise" baseFrequency=".75" numOctaves="3"/><feColorMatrix type="saturate" values="0"/><feComponentTransfer><feFuncA type="table" tableValues="0 .14"/></feComponentTransfer></filter></defs><rect width="1600" height="1050" fill="#1f2725"/><rect x="180" y="120" width="820" height="780" rx="22" fill="#e8d3aa" opacity=".88" stroke="#964731" stroke-width="8"/><rect x="245" y="185" width="610" height="22" fill="#964731" opacity=".72"/><rect x="245" y="250" width="520" height="18" fill="#4c4338" opacity=".36"/><rect x="245" y="292" width="610" height="18" fill="#4c4338" opacity=".30"/><ellipse cx="510" cy="535" rx="175" ry="165" fill="none" stroke="#964731" stroke-width="18"/><ellipse cx="510" cy="535" rx="50" ry="48" fill="none" stroke="#964731" stroke-width="10"/><path d="M640 400L905 150" stroke="#964731" stroke-width="24" stroke-linecap="round"/><path d="M690 440L940 205" stroke="#964731" stroke-width="8" stroke-linecap="round"/><path d="M482 376L820 94M505 382L842 105M528 391L865 118" stroke="#5f4632" stroke-width="4" opacity=".75"/><g transform="translate(1175 270)"><circle r="210" fill="#141412" stroke="#964731" stroke-width="10"/><circle r="156" fill="none" stroke="#33302b" stroke-width="3"/><circle r="118" fill="none" stroke="#33302b" stroke-width="3"/><circle r="55" fill="#964731"/><circle r="13" fill="#e8d3aa"/></g><g transform="translate(1245 670)"><circle r="280" fill="#141412" stroke="#964731" stroke-width="11"/><circle r="220" fill="none" stroke="#33302b" stroke-width="3"/><circle r="168" fill="none" stroke="#33302b" stroke-width="3"/><circle r="116" fill="none" stroke="#33302b" stroke-width="3"/><circle r="60" fill="#964731"/><circle r="13" fill="#e8d3aa"/></g><text x="245" y="685" fill="#964731" opacity=".32" font-family="Georgia, serif" font-size="52" font-weight="700">RADIO ARCHIVE</text><rect width="1600" height="1050" filter="url(#grain)" opacity=".42"/></svg>
