<svg xmlns="http://www.w3.org/2000/svg" viewBox="0 0 1600 1050" role="img" aria-label="Folksong Festival archival visual motif"><defs><filter id="grain"><feTurbulence type="fractalNoise" baseFrequency=".75" numOctaves="3"/><feColorMatrix type="saturate" values="0"/><feComponentTransfer><feFuncA type="table" tableValues="0 .14"/></feComponentTransfer></filter><linearGradient id="fade" x1="0" x2="1"><stop stop-color="#000" stop-opacity=".05"/><stop offset=".55" stop-color="#fff" stop-opacity=".08"/><stop offset="1" stop-color="#000" stop-opacity=".12"/></linearGradient></defs><rect width="1600" height="1050" fill="#1c1814"/><rect width="1600" height="1050" fill="url(#fade)"/><rect x="180" y="120" width="820" height="780" rx="22" fill="#eee0c3" opacity=".88" stroke="#b78449" stroke-width="8"/><rect x="245" y="185" width="610" height="22" fill="#b78449" opacity=".72"/><rect x="245" y="250" width="520" height="18" fill="#4c4338" opacity=".36"/><rect x="245" y="292" width="610" height="18" fill="#4c4338" opacity=".30"/><rect x="410" y="290" width="210" height="320" rx="95" fill="none" stroke="#b78449" stroke-width="18"/><path d="M470 350H560M470 392H560M470 434H560M470 476H560M470 518H560" stroke="#b78449" stroke-width="7" stroke-linecap="round"/><path d="M515 610V735" stroke="#b78449" stroke-width="18" stroke-linecap="round"/><path d="M365 500C365 680 665 680 665 500" fill="none" stroke="#b78449" stroke-width="14" stroke-linecap="round"/><g transform="translate(1175 270)"><circle r="210" fill="#141412" stroke="#b78449" stroke-width="10"/><circle r="156" fill="none" stroke="#33302b" stroke-width="3"/><circle r="118" fill="none" stroke="#33302b" stroke-width="3"/><circle r="80" fill="none" stroke="#33302b" stroke-width="3"/><circle r="55" fill="#b78449"/><circle r="13" fill="#eee0c3"/></g><g transform="translate(1245 670)"><circle r="280" fill="#141412" stroke="#b78449" stroke-width="11"/><circle r="220" fill="none" stroke="#33302b" stroke-width="3"/><circle r="168" fill="none" stroke="#33302b" stroke-width="3"/><circle r="116" fill="none" stroke="#33302b" stroke-width="3"/><circle r="60" fill="#b78449"/><circle r="13" fill="#eee0c3"/></g><text x="245" y="685" fill="#b78449" opacity=".32" font-family="Georgia, serif" font-size="52" font-weight="700">FOLKSONG FESTIVAL</text><rect width="1600" height="1050" filter="url(#grain)" opacity=".42"/></svg>
